<svg width="16" height="16" viewBox="0 0 16 16" fill="none" xmlns="http://www.w3.org/2000/svg">
<path d="M8.0001 1.6001C7.15964 1.6001 6.32741 1.76564 5.55092 2.08727C4.77444 2.4089 4.06891 2.88032 3.47461 3.47461C2.88032 4.06891 2.4089 4.77444 2.08727 5.55092C1.76564 6.32741 1.6001 7.15964 1.6001 8.0001C1.6001 8.84056 1.76564 9.67279 2.08727 10.4493C2.4089 11.2258 2.88032 11.9313 3.47461 12.5256C4.06891 13.1199 4.77444 13.5913 5.55092 13.9129C6.32741 14.2346 7.15964 14.4001 8.0001 14.4001L8.0001 1.6001Z" fill="#F9C031"/>
<path d="M8.0001 14.4001C8.84056 14.4001 9.67279 14.2346 10.4493 13.9129C11.2258 13.5913 11.9313 13.1199 12.5256 12.5256C13.1199 11.9313 13.5913 11.2258 13.9129 10.4493C14.2346 9.67279 14.4001 8.84056 14.4001 8.0001C14.4001 7.15964 14.2346 6.32741 13.9129 5.55092C13.5913 4.77444 13.1199 4.06891 12.5256 3.47461C11.9313 2.88032 11.2258 2.4089 10.4493 2.08727C9.67279 1.76564 8.84056 1.6001 8.0001 1.6001L8.0001 14.4001Z" fill="#F6B027"/>
<g style="mix-blend-mode:screen">
<rect width="2.31812" height="5.58737" rx="1.15906" transform="matrix(-0.707107 -0.707107 -0.707107 0.707107 12.0139 7.08887)" fill="#FFE073"/>
<path d="M6.44482 6.26929C5.99218 5.81664 5.25831 5.81664 4.80567 6.26929C4.35302 6.72193 4.35302 7.4558 4.80567 7.90844L6.10351 9.20629L6.92309 8.38671C7.37573 7.93407 7.37573 7.2002 6.92309 6.74756L6.44482 6.26929Z" fill="#FFE073"/>
</g>
</svg>
