<svg width="24" height="24" viewBox="0 0 24 24" fill="none" xmlns="http://www.w3.org/2000/svg">
<rect width="24" height="24" rx="8" fill="#ECEDF2"/>
<path d="M10 14L14 10M11.3333 8.00004L11.642 7.64271C12.2672 7.01759 13.1151 6.66644 13.9992 6.6665C14.8833 6.66657 15.7312 7.01784 16.3563 7.64304C16.9814 8.26824 17.3326 9.11617 17.3325 10.0003C17.3325 10.8844 16.9812 11.7323 16.356 12.3574L16 12.6667M12.6666 16L12.4019 16.356C11.7694 16.9815 10.9158 17.3323 10.0263 17.3323C9.13674 17.3323 8.2831 16.9815 7.6506 16.356C7.33884 16.0477 7.09133 15.6807 6.92241 15.2761C6.75348 14.8715 6.6665 14.4374 6.6665 13.999C6.6665 13.5606 6.75348 13.1265 6.92241 12.7219C7.09133 12.3173 7.33884 11.9503 7.6506 11.642L7.99993 11.3333" stroke="#95A0B2" stroke-width="1.5" stroke-linecap="round" stroke-linejoin="round"/>
</svg>
