<svg  viewBox="0 0 15 15" fill="none" xmlns="http://www.w3.org/2000/svg">
<path d="M7.96552 13.0369C7.67404 12.8833 7.3256 12.8832 7.03397 13.0365L4.15009 14.5527C3.41646 14.9384 2.55899 14.3155 2.69913 13.4985L3.25007 10.2868C3.30576 9.96219 3.198 9.63094 2.96197 9.40119L0.626259 7.1276C0.0319842 6.54914 0.359587 5.54032 1.18034 5.42137L4.40183 4.95449C4.72769 4.90726 5.00942 4.70265 5.15514 4.40739L6.59729 1.48523C6.9641 0.741976 8.02396 0.741975 8.39077 1.48523L9.83292 4.40739C9.97864 4.70265 10.2604 4.90726 10.5862 4.95449L13.8077 5.42137C14.6285 5.54032 14.9561 6.54913 14.3618 7.1276L12.0261 9.40119C11.7901 9.63094 11.6823 9.96219 11.738 10.2868L12.2885 13.4962C12.4287 14.3135 11.5704 14.9365 10.8367 14.5499L7.96552 13.0369Z" fill="#F6B027"/>
</svg>
